<mxfile host="app.diagrams.net" modified="2024-01-09T11:29:47.073Z" agent="Mozilla/5.0 (Windows NT 10.0; Win64; x64) AppleWebKit/537.36 (KHTML, like Gecko) Chrome/120.0.0.0 Safari/537.36" etag="WUAgNpoc7DCYjtxgdnvF" version="22.1.17" type="github" pages="2">
  <diagram id="R2lEEEUBdFMjLlhIrx00" name="Page-1">
    <mxGraphModel dx="1674" dy="780" grid="1" gridSize="10" guides="1" tooltips="1" connect="1" arrows="1" fold="1" page="1" pageScale="1" pageWidth="850" pageHeight="1100" math="0" shadow="0" extFonts="Permanent Marker^https://fonts.googleapis.com/css?family=Permanent+Marker">
      <root>
        <mxCell id="0" />
        <mxCell id="1" parent="0" />
        <mxCell id="c6JNsBi3vFjXR6Y6ETMt-1" value="Alumno" style="rounded=0;whiteSpace=wrap;html=1;" vertex="1" parent="1">
          <mxGeometry x="135" y="130" width="120" height="60" as="geometry" />
        </mxCell>
        <mxCell id="c6JNsBi3vFjXR6Y6ETMt-2" value="Nombre" style="ellipse;whiteSpace=wrap;html=1;" vertex="1" parent="1">
          <mxGeometry x="10" y="230" width="110" height="60" as="geometry" />
        </mxCell>
        <mxCell id="c6JNsBi3vFjXR6Y6ETMt-3" value="Apellidos" style="ellipse;whiteSpace=wrap;html=1;" vertex="1" parent="1">
          <mxGeometry x="140" y="230" width="110" height="60" as="geometry" />
        </mxCell>
        <mxCell id="c6JNsBi3vFjXR6Y6ETMt-5" value="DNI" style="ellipse;whiteSpace=wrap;html=1;" vertex="1" parent="1">
          <mxGeometry x="270" y="230" width="110" height="60" as="geometry" />
        </mxCell>
        <mxCell id="c6JNsBi3vFjXR6Y6ETMt-6" value="" style="endArrow=none;html=1;rounded=0;exitX=0.445;exitY=-0.05;exitDx=0;exitDy=0;exitPerimeter=0;entryX=0.5;entryY=1;entryDx=0;entryDy=0;" edge="1" parent="1" source="c6JNsBi3vFjXR6Y6ETMt-5" target="c6JNsBi3vFjXR6Y6ETMt-1">
          <mxGeometry width="50" height="50" relative="1" as="geometry">
            <mxPoint x="400" y="230" as="sourcePoint" />
            <mxPoint x="450" y="180" as="targetPoint" />
          </mxGeometry>
        </mxCell>
        <mxCell id="c6JNsBi3vFjXR6Y6ETMt-7" value="" style="endArrow=none;html=1;rounded=0;exitX=0.5;exitY=0;exitDx=0;exitDy=0;entryX=0.5;entryY=1;entryDx=0;entryDy=0;" edge="1" parent="1" source="c6JNsBi3vFjXR6Y6ETMt-3" target="c6JNsBi3vFjXR6Y6ETMt-1">
          <mxGeometry width="50" height="50" relative="1" as="geometry">
            <mxPoint x="400" y="230" as="sourcePoint" />
            <mxPoint x="450" y="180" as="targetPoint" />
            <Array as="points" />
          </mxGeometry>
        </mxCell>
        <mxCell id="c6JNsBi3vFjXR6Y6ETMt-8" value="" style="endArrow=none;html=1;rounded=0;exitX=0.5;exitY=0;exitDx=0;exitDy=0;entryX=0.45;entryY=1.017;entryDx=0;entryDy=0;entryPerimeter=0;" edge="1" parent="1" source="c6JNsBi3vFjXR6Y6ETMt-2" target="c6JNsBi3vFjXR6Y6ETMt-1">
          <mxGeometry width="50" height="50" relative="1" as="geometry">
            <mxPoint x="400" y="230" as="sourcePoint" />
            <mxPoint x="450" y="180" as="targetPoint" />
          </mxGeometry>
        </mxCell>
        <mxCell id="c6JNsBi3vFjXR6Y6ETMt-9" value="Asignatura" style="rounded=0;whiteSpace=wrap;html=1;" vertex="1" parent="1">
          <mxGeometry x="560" y="130" width="120" height="60" as="geometry" />
        </mxCell>
        <mxCell id="c6JNsBi3vFjXR6Y6ETMt-10" value="Matricular" style="rhombus;whiteSpace=wrap;html=1;" vertex="1" parent="1">
          <mxGeometry x="360" y="120" width="80" height="80" as="geometry" />
        </mxCell>
        <mxCell id="c6JNsBi3vFjXR6Y6ETMt-11" value="" style="endArrow=none;html=1;rounded=0;exitX=0;exitY=0.5;exitDx=0;exitDy=0;entryX=1;entryY=0.5;entryDx=0;entryDy=0;" edge="1" parent="1" source="c6JNsBi3vFjXR6Y6ETMt-10" target="c6JNsBi3vFjXR6Y6ETMt-1">
          <mxGeometry width="50" height="50" relative="1" as="geometry">
            <mxPoint x="400" y="230" as="sourcePoint" />
            <mxPoint x="450" y="180" as="targetPoint" />
          </mxGeometry>
        </mxCell>
        <mxCell id="c6JNsBi3vFjXR6Y6ETMt-12" value="" style="endArrow=none;html=1;rounded=0;entryX=1;entryY=0.5;entryDx=0;entryDy=0;exitX=0;exitY=0.5;exitDx=0;exitDy=0;" edge="1" parent="1" source="c6JNsBi3vFjXR6Y6ETMt-9" target="c6JNsBi3vFjXR6Y6ETMt-10">
          <mxGeometry width="50" height="50" relative="1" as="geometry">
            <mxPoint x="400" y="230" as="sourcePoint" />
            <mxPoint x="450" y="180" as="targetPoint" />
          </mxGeometry>
        </mxCell>
        <mxCell id="c6JNsBi3vFjXR6Y6ETMt-14" value="Matricula" style="shape=ext;margin=3;double=1;whiteSpace=wrap;html=1;align=center;" vertex="1" parent="1">
          <mxGeometry x="350" y="340" width="100" height="40" as="geometry" />
        </mxCell>
        <mxCell id="c6JNsBi3vFjXR6Y6ETMt-15" value="" style="endArrow=none;html=1;rounded=0;entryX=0.5;entryY=1;entryDx=0;entryDy=0;exitX=0.5;exitY=0;exitDx=0;exitDy=0;" edge="1" parent="1" source="c6JNsBi3vFjXR6Y6ETMt-14" target="c6JNsBi3vFjXR6Y6ETMt-10">
          <mxGeometry width="50" height="50" relative="1" as="geometry">
            <mxPoint x="400" y="330" as="sourcePoint" />
            <mxPoint x="450" y="180" as="targetPoint" />
          </mxGeometry>
        </mxCell>
        <mxCell id="c6JNsBi3vFjXR6Y6ETMt-16" value="Nombre+Apellido" style="ellipse;whiteSpace=wrap;html=1;align=center;dashed=1;" vertex="1" parent="1">
          <mxGeometry x="15" y="350" width="100" height="40" as="geometry" />
        </mxCell>
        <mxCell id="c6JNsBi3vFjXR6Y6ETMt-18" value="" style="endArrow=none;html=1;rounded=0;exitX=0.5;exitY=0;exitDx=0;exitDy=0;entryX=0.5;entryY=1;entryDx=0;entryDy=0;" edge="1" parent="1" source="c6JNsBi3vFjXR6Y6ETMt-16" target="c6JNsBi3vFjXR6Y6ETMt-1">
          <mxGeometry width="50" height="50" relative="1" as="geometry">
            <mxPoint x="400" y="230" as="sourcePoint" />
            <mxPoint x="450" y="180" as="targetPoint" />
          </mxGeometry>
        </mxCell>
        <mxCell id="c6JNsBi3vFjXR6Y6ETMt-20" value="M" style="text;html=1;align=center;verticalAlign=middle;resizable=0;points=[];autosize=1;strokeColor=none;fillColor=none;" vertex="1" parent="1">
          <mxGeometry x="265" y="128" width="30" height="30" as="geometry" />
        </mxCell>
        <mxCell id="c6JNsBi3vFjXR6Y6ETMt-21" value="N" style="text;html=1;align=center;verticalAlign=middle;resizable=0;points=[];autosize=1;strokeColor=none;fillColor=none;" vertex="1" parent="1">
          <mxGeometry x="525" y="128" width="30" height="30" as="geometry" />
        </mxCell>
      </root>
    </mxGraphModel>
  </diagram>
  <diagram id="2jQ5n4esvmmUi8A3cLdO" name="PÃ¡gina-2">
    <mxGraphModel dx="1969" dy="3256" grid="1" gridSize="10" guides="1" tooltips="1" connect="1" arrows="1" fold="1" page="1" pageScale="1" pageWidth="827" pageHeight="1169" math="0" shadow="0">
      <root>
        <mxCell id="0" />
        <mxCell id="1" parent="0" />
        <mxCell id="Aj2yxlWT1aikuLeK5tdq-11" style="edgeStyle=orthogonalEdgeStyle;rounded=0;orthogonalLoop=1;jettySize=auto;html=1;" edge="1" parent="1" source="JCe3ENuHZnp1wdbxUoYA-5" target="_bHKyxbqxqZ2-tdjSG1e-6">
          <mxGeometry relative="1" as="geometry" />
        </mxCell>
        <mxCell id="Aj2yxlWT1aikuLeK5tdq-12" style="edgeStyle=orthogonalEdgeStyle;rounded=0;orthogonalLoop=1;jettySize=auto;html=1;" edge="1" parent="1" source="JCe3ENuHZnp1wdbxUoYA-5" target="_bHKyxbqxqZ2-tdjSG1e-4">
          <mxGeometry relative="1" as="geometry" />
        </mxCell>
        <mxCell id="Aj2yxlWT1aikuLeK5tdq-14" style="edgeStyle=orthogonalEdgeStyle;rounded=0;orthogonalLoop=1;jettySize=auto;html=1;entryX=0;entryY=0.5;entryDx=0;entryDy=0;" edge="1" parent="1" source="JCe3ENuHZnp1wdbxUoYA-5">
          <mxGeometry relative="1" as="geometry">
            <mxPoint x="591.5" y="-1299" as="targetPoint" />
          </mxGeometry>
        </mxCell>
        <mxCell id="Aj2yxlWT1aikuLeK5tdq-46" style="edgeStyle=orthogonalEdgeStyle;rounded=0;orthogonalLoop=1;jettySize=auto;html=1;entryX=0;entryY=0.5;entryDx=0;entryDy=0;" edge="1" parent="1" source="JCe3ENuHZnp1wdbxUoYA-5" target="Aj2yxlWT1aikuLeK5tdq-45">
          <mxGeometry relative="1" as="geometry" />
        </mxCell>
        <mxCell id="HEMNhRhvnz84oHSZurWP-3" style="edgeStyle=orthogonalEdgeStyle;rounded=0;orthogonalLoop=1;jettySize=auto;html=1;" edge="1" parent="1" source="JCe3ENuHZnp1wdbxUoYA-5" target="Aj2yxlWT1aikuLeK5tdq-41">
          <mxGeometry relative="1" as="geometry" />
        </mxCell>
        <mxCell id="JCe3ENuHZnp1wdbxUoYA-5" value="Usuario" style="rounded=0;whiteSpace=wrap;html=1;" vertex="1" parent="1">
          <mxGeometry x="414" y="-1230" width="120" height="60" as="geometry" />
        </mxCell>
        <mxCell id="Aj2yxlWT1aikuLeK5tdq-27" style="edgeStyle=orthogonalEdgeStyle;rounded=0;orthogonalLoop=1;jettySize=auto;html=1;" edge="1" parent="1" source="JCe3ENuHZnp1wdbxUoYA-6" target="Aj2yxlWT1aikuLeK5tdq-26">
          <mxGeometry relative="1" as="geometry" />
        </mxCell>
        <mxCell id="Aj2yxlWT1aikuLeK5tdq-28" style="edgeStyle=orthogonalEdgeStyle;rounded=0;orthogonalLoop=1;jettySize=auto;html=1;" edge="1" parent="1" source="JCe3ENuHZnp1wdbxUoYA-6" target="Aj2yxlWT1aikuLeK5tdq-25">
          <mxGeometry relative="1" as="geometry" />
        </mxCell>
        <mxCell id="Aj2yxlWT1aikuLeK5tdq-31" style="edgeStyle=orthogonalEdgeStyle;rounded=0;orthogonalLoop=1;jettySize=auto;html=1;entryX=0;entryY=0.5;entryDx=0;entryDy=0;" edge="1" parent="1" source="JCe3ENuHZnp1wdbxUoYA-6" target="Aj2yxlWT1aikuLeK5tdq-30">
          <mxGeometry relative="1" as="geometry" />
        </mxCell>
        <mxCell id="Aj2yxlWT1aikuLeK5tdq-33" style="edgeStyle=orthogonalEdgeStyle;rounded=0;orthogonalLoop=1;jettySize=auto;html=1;entryX=0;entryY=0.5;entryDx=0;entryDy=0;" edge="1" parent="1" source="JCe3ENuHZnp1wdbxUoYA-6" target="Aj2yxlWT1aikuLeK5tdq-32">
          <mxGeometry relative="1" as="geometry" />
        </mxCell>
        <mxCell id="Aj2yxlWT1aikuLeK5tdq-47" style="edgeStyle=orthogonalEdgeStyle;rounded=0;orthogonalLoop=1;jettySize=auto;html=1;entryX=0;entryY=0.5;entryDx=0;entryDy=0;" edge="1" parent="1" source="JCe3ENuHZnp1wdbxUoYA-6" target="Aj2yxlWT1aikuLeK5tdq-36">
          <mxGeometry relative="1" as="geometry" />
        </mxCell>
        <mxCell id="Aj2yxlWT1aikuLeK5tdq-48" style="edgeStyle=orthogonalEdgeStyle;rounded=0;orthogonalLoop=1;jettySize=auto;html=1;entryX=0;entryY=0.5;entryDx=0;entryDy=0;" edge="1" parent="1" source="JCe3ENuHZnp1wdbxUoYA-6" target="Aj2yxlWT1aikuLeK5tdq-35">
          <mxGeometry relative="1" as="geometry" />
        </mxCell>
        <mxCell id="HEMNhRhvnz84oHSZurWP-5" style="edgeStyle=orthogonalEdgeStyle;rounded=0;orthogonalLoop=1;jettySize=auto;html=1;" edge="1" parent="1" source="JCe3ENuHZnp1wdbxUoYA-6" target="HEMNhRhvnz84oHSZurWP-1">
          <mxGeometry relative="1" as="geometry" />
        </mxCell>
        <mxCell id="JCe3ENuHZnp1wdbxUoYA-6" value="Paquete" style="rounded=0;whiteSpace=wrap;html=1;" vertex="1" parent="1">
          <mxGeometry x="410" y="-950" width="120" height="60" as="geometry" />
        </mxCell>
        <mxCell id="Aj2yxlWT1aikuLeK5tdq-8" style="edgeStyle=orthogonalEdgeStyle;rounded=0;orthogonalLoop=1;jettySize=auto;html=1;" edge="1" parent="1" source="_bHKyxbqxqZ2-tdjSG1e-1" target="_bHKyxbqxqZ2-tdjSG1e-8">
          <mxGeometry relative="1" as="geometry" />
        </mxCell>
        <mxCell id="Aj2yxlWT1aikuLeK5tdq-9" style="edgeStyle=orthogonalEdgeStyle;rounded=0;orthogonalLoop=1;jettySize=auto;html=1;" edge="1" parent="1" source="_bHKyxbqxqZ2-tdjSG1e-1" target="Aj2yxlWT1aikuLeK5tdq-5">
          <mxGeometry relative="1" as="geometry" />
        </mxCell>
        <mxCell id="_bHKyxbqxqZ2-tdjSG1e-1" value="Vehiculo" style="rounded=0;whiteSpace=wrap;html=1;" vertex="1" parent="1">
          <mxGeometry x="387.5" y="-410" width="120" height="60" as="geometry" />
        </mxCell>
        <mxCell id="Aj2yxlWT1aikuLeK5tdq-19" style="edgeStyle=orthogonalEdgeStyle;rounded=0;orthogonalLoop=1;jettySize=auto;html=1;" edge="1" parent="1" target="Aj2yxlWT1aikuLeK5tdq-6">
          <mxGeometry relative="1" as="geometry">
            <mxPoint x="207.49999999999955" y="-380" as="sourcePoint" />
          </mxGeometry>
        </mxCell>
        <mxCell id="Aj2yxlWT1aikuLeK5tdq-20" style="edgeStyle=orthogonalEdgeStyle;rounded=0;orthogonalLoop=1;jettySize=auto;html=1;" edge="1" parent="1" target="Aj2yxlWT1aikuLeK5tdq-18">
          <mxGeometry relative="1" as="geometry">
            <mxPoint x="207.49999999999955" y="-380" as="sourcePoint" />
          </mxGeometry>
        </mxCell>
        <mxCell id="Aj2yxlWT1aikuLeK5tdq-23" style="edgeStyle=orthogonalEdgeStyle;rounded=0;orthogonalLoop=1;jettySize=auto;html=1;entryX=0;entryY=0.5;entryDx=0;entryDy=0;" edge="1" parent="1" target="_bHKyxbqxqZ2-tdjSG1e-9">
          <mxGeometry relative="1" as="geometry">
            <mxPoint x="207.49999999999955" y="-380" as="sourcePoint" />
          </mxGeometry>
        </mxCell>
        <mxCell id="_bHKyxbqxqZ2-tdjSG1e-3" value="Conductores" style="rounded=0;whiteSpace=wrap;html=1;" vertex="1" parent="1">
          <mxGeometry x="100" y="-410" width="110" height="60" as="geometry" />
        </mxCell>
        <mxCell id="_bHKyxbqxqZ2-tdjSG1e-4" value="Nombre" style="ellipse;whiteSpace=wrap;html=1;" vertex="1" parent="1">
          <mxGeometry x="594" y="-1270" width="70" height="40" as="geometry" />
        </mxCell>
        <mxCell id="_bHKyxbqxqZ2-tdjSG1e-6" value="DNI" style="ellipse;whiteSpace=wrap;html=1;" vertex="1" parent="1">
          <mxGeometry x="594" y="-1210" width="65" height="40" as="geometry" />
        </mxCell>
        <mxCell id="_bHKyxbqxqZ2-tdjSG1e-8" value="Camion" style="ellipse;whiteSpace=wrap;html=1;" vertex="1" parent="1">
          <mxGeometry x="557.5" y="-420" width="70" height="40" as="geometry" />
        </mxCell>
        <mxCell id="HEMNhRhvnz84oHSZurWP-11" style="edgeStyle=orthogonalEdgeStyle;rounded=0;orthogonalLoop=1;jettySize=auto;html=1;entryX=0;entryY=0.5;entryDx=0;entryDy=0;" edge="1" parent="1" source="_bHKyxbqxqZ2-tdjSG1e-9" target="_bHKyxbqxqZ2-tdjSG1e-1">
          <mxGeometry relative="1" as="geometry" />
        </mxCell>
        <mxCell id="_bHKyxbqxqZ2-tdjSG1e-9" value="Vehiculos" style="ellipse;whiteSpace=wrap;html=1;" vertex="1" parent="1">
          <mxGeometry x="262.5" y="-230" width="77.5" height="40" as="geometry" />
        </mxCell>
        <mxCell id="Aj2yxlWT1aikuLeK5tdq-4" value="Moto" style="ellipse;whiteSpace=wrap;html=1;" vertex="1" parent="1">
          <mxGeometry x="557.5" y="-310" width="70" height="40" as="geometry" />
        </mxCell>
        <mxCell id="Aj2yxlWT1aikuLeK5tdq-5" value="Coche" style="ellipse;whiteSpace=wrap;html=1;" vertex="1" parent="1">
          <mxGeometry x="557.5" y="-370" width="70" height="40" as="geometry" />
        </mxCell>
        <mxCell id="Aj2yxlWT1aikuLeK5tdq-6" value="DNI" style="ellipse;whiteSpace=wrap;html=1;" vertex="1" parent="1">
          <mxGeometry x="267.5" y="-406" width="65" height="40" as="geometry" />
        </mxCell>
        <mxCell id="Aj2yxlWT1aikuLeK5tdq-10" style="edgeStyle=orthogonalEdgeStyle;rounded=0;orthogonalLoop=1;jettySize=auto;html=1;entryX=0;entryY=0.75;entryDx=0;entryDy=0;entryPerimeter=0;" edge="1" parent="1" source="_bHKyxbqxqZ2-tdjSG1e-1" target="Aj2yxlWT1aikuLeK5tdq-4">
          <mxGeometry relative="1" as="geometry" />
        </mxCell>
        <mxCell id="Aj2yxlWT1aikuLeK5tdq-13" value="Direccion&lt;br&gt;" style="ellipse;whiteSpace=wrap;html=1;" vertex="1" parent="1">
          <mxGeometry x="586.5" y="-1330" width="70" height="40" as="geometry" />
        </mxCell>
        <mxCell id="Aj2yxlWT1aikuLeK5tdq-18" value="Nombre" style="ellipse;whiteSpace=wrap;html=1;" vertex="1" parent="1">
          <mxGeometry x="265" y="-350" width="70" height="40" as="geometry" />
        </mxCell>
        <mxCell id="Aj2yxlWT1aikuLeK5tdq-21" value="Direccion&lt;br&gt;" style="ellipse;whiteSpace=wrap;html=1;" vertex="1" parent="1">
          <mxGeometry x="265" y="-290" width="70" height="40" as="geometry" />
        </mxCell>
        <mxCell id="Aj2yxlWT1aikuLeK5tdq-22" style="edgeStyle=orthogonalEdgeStyle;rounded=0;orthogonalLoop=1;jettySize=auto;html=1;entryX=0.007;entryY=0.7;entryDx=0;entryDy=0;entryPerimeter=0;" edge="1" parent="1" target="Aj2yxlWT1aikuLeK5tdq-21">
          <mxGeometry relative="1" as="geometry">
            <mxPoint x="207.49999999999955" y="-380" as="sourcePoint" />
          </mxGeometry>
        </mxCell>
        <mxCell id="Aj2yxlWT1aikuLeK5tdq-24" value="Fragil?" style="ellipse;whiteSpace=wrap;html=1;" vertex="1" parent="1">
          <mxGeometry x="565" y="-830" width="70" height="40" as="geometry" />
        </mxCell>
        <mxCell id="Aj2yxlWT1aikuLeK5tdq-25" value="TamaÃ±o" style="ellipse;whiteSpace=wrap;html=1;" vertex="1" parent="1">
          <mxGeometry x="565" y="-890" width="70" height="40" as="geometry" />
        </mxCell>
        <mxCell id="Aj2yxlWT1aikuLeK5tdq-26" value="Peso" style="ellipse;whiteSpace=wrap;html=1;" vertex="1" parent="1">
          <mxGeometry x="565" y="-950" width="70" height="40" as="geometry" />
        </mxCell>
        <mxCell id="Aj2yxlWT1aikuLeK5tdq-29" style="edgeStyle=orthogonalEdgeStyle;rounded=0;orthogonalLoop=1;jettySize=auto;html=1;entryX=0;entryY=0.675;entryDx=0;entryDy=0;entryPerimeter=0;" edge="1" parent="1" source="JCe3ENuHZnp1wdbxUoYA-6" target="Aj2yxlWT1aikuLeK5tdq-24">
          <mxGeometry relative="1" as="geometry" />
        </mxCell>
        <mxCell id="Aj2yxlWT1aikuLeK5tdq-30" value="Distancio" style="ellipse;whiteSpace=wrap;html=1;" vertex="1" parent="1">
          <mxGeometry x="565" y="-760" width="65" height="40" as="geometry" />
        </mxCell>
        <mxCell id="Aj2yxlWT1aikuLeK5tdq-32" value="Peso" style="ellipse;whiteSpace=wrap;html=1;" vertex="1" parent="1">
          <mxGeometry x="565" y="-700" width="70" height="40" as="geometry" />
        </mxCell>
        <mxCell id="Aj2yxlWT1aikuLeK5tdq-35" value="A domicilio" style="ellipse;whiteSpace=wrap;html=1;" vertex="1" parent="1">
          <mxGeometry x="562.5" y="-584" width="70" height="40" as="geometry" />
        </mxCell>
        <mxCell id="Aj2yxlWT1aikuLeK5tdq-36" value="A pie de calle" style="ellipse;whiteSpace=wrap;html=1;" vertex="1" parent="1">
          <mxGeometry x="562.5" y="-640" width="70" height="40" as="geometry" />
        </mxCell>
        <mxCell id="HEMNhRhvnz84oHSZurWP-4" style="edgeStyle=orthogonalEdgeStyle;rounded=0;orthogonalLoop=1;jettySize=auto;html=1;" edge="1" parent="1" source="Aj2yxlWT1aikuLeK5tdq-41">
          <mxGeometry relative="1" as="geometry">
            <mxPoint x="474.00000000000045" y="-960" as="targetPoint" />
          </mxGeometry>
        </mxCell>
        <mxCell id="Aj2yxlWT1aikuLeK5tdq-41" value="Asignar" style="rhombus;whiteSpace=wrap;html=1;" vertex="1" parent="1">
          <mxGeometry x="414" y="-1080" width="120" height="50" as="geometry" />
        </mxCell>
        <mxCell id="Aj2yxlWT1aikuLeK5tdq-45" value="MetodoPago" style="ellipse;whiteSpace=wrap;html=1;" vertex="1" parent="1">
          <mxGeometry x="591.5" y="-1160" width="65" height="40" as="geometry" />
        </mxCell>
        <mxCell id="HEMNhRhvnz84oHSZurWP-9" style="edgeStyle=orthogonalEdgeStyle;rounded=0;orthogonalLoop=1;jettySize=auto;html=1;" edge="1" parent="1" source="HEMNhRhvnz84oHSZurWP-1" target="_bHKyxbqxqZ2-tdjSG1e-3">
          <mxGeometry relative="1" as="geometry" />
        </mxCell>
        <mxCell id="HEMNhRhvnz84oHSZurWP-1" value="Asignar" style="rhombus;whiteSpace=wrap;html=1;" vertex="1" parent="1">
          <mxGeometry x="385" y="-520" width="120" height="50" as="geometry" />
        </mxCell>
      </root>
    </mxGraphModel>
  </diagram>
</mxfile>
